<?xml version="1.0" standalone="no"?>
<svg id="visual" viewBox="0 0 1440 200" width="1440" height="200" xmlns="http://www.w3.org/2000/svg" xmlns:xlink="http://www.w3.org/1999/xlink" version="1.1"><rect x="0" y="0" width="1440" height="200" fill="#fff"></rect><path d="M0 52L18.5 56.8C37 61.7 74 71.3 111 75.2C148 79 185 77 221.8 72.2C258.7 67.3 295.3 59.7 332.2 74.8C369 90 406 128 443 131.2C480 134.3 517 102.7 554 97C591 91.3 628 111.7 664.8 115.3C701.7 119 738.3 106 775.2 92.2C812 78.3 849 63.7 886 63.8C923 64 960 79 997 79.7C1034 80.3 1071 66.7 1107.8 76.8C1144.7 87 1181.3 121 1218.2 125.8C1255 130.7 1292 106.3 1329 85.7C1366 65 1403 48 1421.5 39.5L1440 31L1440 201L1421.5 201C1403 201 1366 201 1329 201C1292 201 1255 201 1218.2 201C1181.3 201 1144.7 201 1107.8 201C1071 201 1034 201 997 201C960 201 923 201 886 201C849 201 812 201 775.2 201C738.3 201 701.7 201 664.8 201C628 201 591 201 554 201C517 201 480 201 443 201C406 201 369 201 332.2 201C295.3 201 258.7 201 221.8 201C185 201 148 201 111 201C74 201 37 201 18.5 201L0 201Z" fill="#49e196"></path><path d="M0 121L18.5 121.3C37 121.7 74 122.3 111 131.2C148 140 185 157 221.8 151.3C258.7 145.7 295.3 117.3 332.2 115.5C369 113.7 406 138.3 443 136.8C480 135.3 517 107.7 554 98.2C591 88.7 628 97.3 664.8 105.5C701.7 113.7 738.3 121.3 775.2 122.7C812 124 849 119 886 116.2C923 113.3 960 112.7 997 123.8C1034 135 1071 158 1107.8 162.8C1144.7 167.7 1181.3 154.3 1218.2 143.7C1255 133 1292 125 1329 128.8C1366 132.7 1403 148.3 1421.5 156.2L1440 164L1440 201L1421.5 201C1403 201 1366 201 1329 201C1292 201 1255 201 1218.2 201C1181.3 201 1144.7 201 1107.8 201C1071 201 1034 201 997 201C960 201 923 201 886 201C849 201 812 201 775.2 201C738.3 201 701.7 201 664.8 201C628 201 591 201 554 201C517 201 480 201 443 201C406 201 369 201 332.2 201C295.3 201 258.7 201 221.8 201C185 201 148 201 111 201C74 201 37 201 18.5 201L0 201Z" fill="#4a6873"></path></svg>
